<svg width="86" height="76" viewBox="0 0 86 76" fill="none" xmlns="http://www.w3.org/2000/svg">
<g clip-path="url(#clip0)">
<path d="M73.0598 19.4424C72.6661 19.4424 72.2724 19.2577 72.0408 18.8882C65.5332 9.09739 54.6486 3.25521 42.884 3.25521C31.1888 3.25521 20.3274 9.0512 13.8198 18.7497C13.4493 19.3039 12.685 19.4655 12.1061 19.0961C11.5503 18.7266 11.3882 17.9646 11.7587 17.3873C18.7295 6.99605 30.3551 0.807495 42.884 0.807495C55.4823 0.807495 67.1543 7.06533 74.1019 17.5489C74.4725 18.1262 74.3335 18.8882 73.7545 19.2577C73.5229 19.3732 73.2914 19.4424 73.0598 19.4424Z" fill="url(#paint0_linear)"/>
<path d="M12.7775 56.7585C13.1712 56.7585 13.5649 56.9433 13.7965 57.3127C20.3041 67.1036 31.1887 72.9458 42.9533 72.9458C54.6484 72.9458 65.5099 67.1498 72.0175 57.4513C72.388 56.8971 73.1522 56.7355 73.7312 57.1049C74.287 57.4744 74.4491 58.2364 74.0786 58.8137C67.1078 69.2049 55.4822 75.3935 42.9533 75.3935C30.355 75.3935 18.683 69.1356 11.7354 58.6521C11.3648 58.0748 11.5038 57.3127 12.0827 56.9433C12.2912 56.8047 12.5459 56.7585 12.7775 56.7585Z" fill="url(#paint1_linear)"/>
<path d="M19.262 73.5231C19.0305 73.5231 18.7757 73.4538 18.5673 73.3152C6.98793 65.3255 0.0634766 52.1633 0.0634766 38.1467C0.0634766 24.107 6.98793 10.9678 18.5673 2.95505L18.5904 2.93195C19.1462 2.5394 19.9336 2.67795 20.3042 3.23215C20.6979 3.78634 20.5589 4.54837 20.0031 4.94092L19.98 4.96402C9.02589 12.515 2.5183 24.9152 2.5183 38.1467C2.5183 51.3782 9.04905 63.7553 19.9568 71.3063C20.5126 71.6988 20.6516 72.4608 20.2579 73.015C20.0263 73.3383 19.6326 73.5231 19.262 73.5231Z" fill="url(#paint2_linear)"/>
<path d="M66.5756 73.5461C66.1819 73.5461 65.7882 73.3614 65.5567 73.015C65.163 72.4608 65.3019 71.6988 65.8809 71.3062C76.8118 63.7784 83.3425 51.3781 83.3425 38.1466C83.3425 24.9151 76.8349 12.538 65.904 4.98707C65.3482 4.59451 65.2093 3.83249 65.603 3.27829C65.9967 2.72409 66.7609 2.58554 67.3167 2.9781C78.8961 10.9678 85.8205 24.13 85.8205 38.1466C85.8205 52.1864 78.8961 65.3486 67.2936 73.3383C67.062 73.4768 66.8304 73.5461 66.5756 73.5461Z" fill="url(#paint3_linear)"/>
<path d="M23.078 48.3117C22.31 48.0894 21.9879 47.9412 21.9879 47.4965C21.9879 47.1013 22.5082 46.9778 22.9541 46.9778C23.3505 46.9778 23.7469 47.1013 24.0442 47.2742C24.1185 47.3236 24.1928 47.3236 24.2672 47.2989C24.3415 47.2742 24.4158 47.2248 24.4406 47.1507L24.5644 46.9036C24.6388 46.7801 24.5892 46.6319 24.4654 46.5331C24.069 46.2614 23.4744 46.1132 22.9541 46.1132C21.864 46.1132 21.1208 46.6813 21.1208 47.5212C21.1208 48.6081 22.0375 48.8799 22.7807 49.1022C23.5487 49.3245 23.8955 49.4727 23.8955 49.9421C23.8955 50.4114 23.3505 50.5596 22.8302 50.5596C22.3347 50.5596 21.8145 50.2879 21.4924 49.9915C21.4181 49.9421 21.3438 49.8927 21.2695 49.9174C21.1951 49.9174 21.096 49.9668 21.0713 50.0409L20.9226 50.2879C20.8483 50.3867 20.8731 50.5349 20.9722 50.6337C21.4429 51.1031 22.1613 51.3995 22.855 51.3995C24.0194 51.3995 24.7874 50.8067 24.7874 49.9174C24.7874 48.8304 23.846 48.534 23.078 48.3117Z" fill="#1C3B74"/>
<path d="M26.9429 49.2257L27.7604 47.4224L28.6027 49.2257H26.9429ZM28.1568 46.3107C28.1073 46.2119 28.0082 46.1378 27.9091 46.1378H27.6118C27.5127 46.1378 27.4136 46.2119 27.364 46.3107L25.2086 51.0289C25.1591 51.1278 25.1839 51.2266 25.2334 51.3007C25.283 51.3748 25.3821 51.4242 25.4564 51.4242H25.7785C25.8776 51.4242 25.9767 51.3501 26.0262 51.2513L26.5712 50.0655H28.9744L29.5194 51.2513C29.5689 51.3501 29.668 51.4242 29.7671 51.4242H30.0892C30.1883 51.4242 30.2626 51.3748 30.337 51.3007C30.3865 51.2266 30.3865 51.1278 30.3617 51.0289L28.1568 46.3107Z" fill="#1C3B74"/>
<path d="M31.7491 46.1378H31.4766C31.328 46.1378 31.2041 46.2613 31.2041 46.4095V51.1278C31.2041 51.276 31.328 51.3995 31.4766 51.3995H31.7491C31.8978 51.3995 32.0217 51.276 32.0217 51.1278V46.4095C32.0217 46.2613 31.8978 46.1378 31.7491 46.1378Z" fill="#1C3B74"/>
<path d="M37.6453 46.1379H37.3728C37.2241 46.1379 37.1002 46.2614 37.1002 46.4096V49.8433L34.4494 46.2367C34.3998 46.1626 34.3007 46.1132 34.2264 46.1132H33.9044C33.7557 46.1132 33.6318 46.2367 33.6318 46.3849V51.1031C33.6318 51.2513 33.7557 51.3748 33.9044 51.3748H34.1769C34.3255 51.3748 34.4494 51.2513 34.4494 51.1031V47.6694L37.1002 51.276C37.1498 51.3501 37.2489 51.3995 37.3232 51.3995H37.6453C37.7939 51.3995 37.9178 51.276 37.9178 51.1278V46.4096C37.9178 46.2614 37.7939 46.1379 37.6453 46.1379Z" fill="#1C3B74"/>
<path d="M42.526 46.1378H39.0328C38.8841 46.1378 38.7603 46.2613 38.7603 46.4095V46.6813C38.7603 46.8295 38.8841 46.953 39.0328 46.953H40.3458V51.1278C40.3458 51.276 40.4697 51.3995 40.6183 51.3995H40.8909C41.0395 51.3995 41.1634 51.276 41.1634 51.1278V46.953H42.4764C42.6251 46.953 42.7489 46.8295 42.7489 46.6813V46.4095C42.8233 46.2613 42.6994 46.1378 42.526 46.1378Z" fill="#1C3B74"/>
<path d="M44.607 48.7069H43.0958C42.9471 48.7069 42.8232 48.8304 42.8232 48.9786V49.201C42.8232 49.3492 42.9471 49.4727 43.0958 49.4727H44.607C44.7557 49.4727 44.8795 49.3492 44.8795 49.201V48.9786C44.9043 48.8304 44.7804 48.7069 44.607 48.7069Z" fill="#1C3B74"/>
<path d="M50.5036 48.534H50.2559H49.4135C49.2649 48.534 49.141 48.6575 49.141 48.8057V49.0775C49.141 49.2257 49.2649 49.3492 49.4135 49.3492H49.9833V50.2138C49.6613 50.4361 49.2649 50.5596 48.8437 50.5596C47.8032 50.5596 46.9361 49.7445 46.9361 48.7316C46.9361 47.7188 47.7784 46.9283 48.8437 46.9283C49.3392 46.9283 49.8099 47.1013 50.1568 47.4224C50.2063 47.4718 50.2806 47.4965 50.3549 47.4965C50.4293 47.4965 50.5036 47.4471 50.5531 47.3977L50.7266 47.2001C50.8257 47.0766 50.8009 46.9036 50.7018 46.8048C50.1815 46.3602 49.5374 46.1132 48.8437 46.1132C47.3325 46.1132 46.0938 47.2989 46.0938 48.7563C46.0938 50.2138 47.3077 51.3995 48.8189 51.3995C49.4878 51.3995 50.1815 51.1525 50.677 50.7079C50.7266 50.6584 50.7761 50.5843 50.7761 50.4855V48.8305C50.7761 48.6822 50.6522 48.534 50.5036 48.534Z" fill="#1C3B74"/>
<path d="M54.4674 50.5843C53.4268 50.5843 52.5845 49.7691 52.5845 48.781C52.5845 47.7929 53.4268 46.9777 54.4674 46.9777C55.5079 46.9777 56.3502 47.7929 56.3502 48.781C56.3502 49.7691 55.5079 50.5843 54.4674 50.5843ZM54.4674 46.1378C52.9561 46.1378 51.7422 47.3235 51.7422 48.781C51.7422 50.2385 52.9561 51.4242 54.4674 51.4242C55.9786 51.4242 57.1926 50.2385 57.1926 48.781C57.2173 47.3235 55.9786 46.1378 54.4674 46.1378Z" fill="#1C3B74"/>
<path d="M59.001 49.1268H60.3636C60.7848 49.1268 61.528 49.2257 61.528 49.8432C61.528 50.4608 60.9087 50.5843 60.3636 50.5843H59.001V49.1268ZM60.3636 48.2869H59.001V46.9777H60.3636C60.7848 46.9777 61.2803 47.1012 61.2803 47.62C61.2803 48.0646 60.983 48.2869 60.3636 48.2869ZM61.7014 48.6328C61.9987 48.3858 62.1474 48.0399 62.1474 47.5953C62.1474 46.706 61.4785 46.1378 60.3884 46.1378H58.4312C58.2826 46.1378 58.1587 46.2613 58.1587 46.4095V51.1278C58.1587 51.276 58.2826 51.3995 58.4312 51.3995H60.3884C61.6271 51.3995 62.3704 50.8313 62.3704 49.8432C62.3704 49.3245 62.1226 48.8798 61.7014 48.6328Z" fill="#1C3B74"/>
<path d="M64.5753 49.2257L65.3929 47.4224L66.2352 49.2257H64.5753ZM65.814 46.3107C65.7645 46.2119 65.6654 46.1378 65.5663 46.1378H65.269C65.1699 46.1378 65.0708 46.2119 65.0212 46.3107L62.8659 51.0289C62.8163 51.1278 62.8411 51.2266 62.8907 51.3007C62.9402 51.3748 63.0393 51.4242 63.1384 51.4242H63.4605C63.5596 51.4242 63.6587 51.3501 63.7082 51.2513L64.2532 50.0655H66.6564L67.2014 51.2513C67.2509 51.3501 67.35 51.4242 67.4491 51.4242H67.7712C67.8703 51.4242 67.9446 51.3748 68.0189 51.3007C68.0685 51.2266 68.0685 51.1278 68.0437 51.0289L65.814 46.3107Z" fill="#1C3B74"/>
<path d="M69.381 46.1378H69.1085C68.9598 46.1378 68.8359 46.2613 68.8359 46.4095V51.1278C68.8359 51.276 68.9598 51.3995 69.1085 51.3995H69.381C69.5296 51.3995 69.6535 51.276 69.6535 51.1278V46.4095C69.6535 46.2613 69.5296 46.1378 69.381 46.1378Z" fill="#1C3B74"/>
<path d="M75.3025 46.1379H75.03C74.8814 46.1379 74.7575 46.2614 74.7575 46.4096V49.8433L72.1066 46.2367C72.0571 46.1626 71.958 46.1132 71.8836 46.1132H71.5616C71.4129 46.1132 71.2891 46.2367 71.2891 46.3849V51.1031C71.2891 51.2513 71.4129 51.3748 71.5616 51.3748H71.8341C71.9827 51.3748 72.1066 51.2513 72.1066 51.1031V47.6694L74.7575 51.276C74.807 51.3501 74.9061 51.3995 74.9804 51.3995H75.3025C75.4512 51.3995 75.575 51.276 75.575 51.1278V46.4096C75.575 46.2614 75.4512 46.1379 75.3025 46.1379Z" fill="#1C3B74"/>
<path d="M9.7741 49.1267H11.1367C11.5579 49.1267 12.3011 49.2255 12.3011 49.8431C12.3011 50.4607 11.6817 50.5842 11.1367 50.5842H9.7741V49.1267ZM11.1367 48.2868H9.7741V46.9776H11.1367C11.5579 46.9776 12.0533 47.1011 12.0533 47.6199C12.0533 48.0645 11.7561 48.2868 11.1367 48.2868ZM12.4745 48.6327C12.7718 48.3856 12.9204 48.0398 12.9204 47.5951C12.9204 46.7059 12.2515 46.1377 11.1615 46.1377H9.22906C9.08042 46.1377 8.95654 46.2612 8.95654 46.4094V51.1276C8.95654 51.2758 9.08042 51.3993 9.22906 51.3993H11.1862C12.425 51.3993 13.1682 50.8312 13.1682 49.8431C13.1434 49.3243 12.8957 48.8797 12.4745 48.6327Z" fill="#1C3B74"/>
<path d="M17.8753 46.3601L17.6523 46.1872C17.5284 46.0884 17.355 46.1378 17.2559 46.2613L15.6951 48.4351L14.2087 46.2613C14.1344 46.1378 13.9362 46.0884 13.8123 46.1872L13.5645 46.3354C13.4407 46.4095 13.3911 46.6072 13.4902 46.7307L15.2244 49.2997V51.1277C15.2244 51.276 15.3483 51.3995 15.4969 51.3995H15.7695C15.9181 51.3995 16.042 51.276 16.042 51.1277V49.2997L17.8753 46.7307C18.0239 46.6072 17.9992 46.4342 17.8753 46.3601Z" fill="#1C3B74"/>
<path d="M30.6757 24.9824C30.7368 24.7589 30.8693 24.5658 31.0731 24.4033C31.2769 24.2407 31.4807 24.1594 31.6845 24.1594C32.0921 24.1594 32.3264 24.3931 32.3876 24.8605C32.3876 26.1001 32.357 27.3498 32.2959 28.6097C32.2551 29.8492 32.194 31.0888 32.1124 32.3283C32.0309 33.5882 31.9596 34.8379 31.8985 36.0775C31.8373 37.317 31.7966 38.5668 31.7762 39.8266C31.7354 40.0908 31.603 40.3143 31.3788 40.4972C31.1546 40.6598 30.9406 40.7411 30.7368 40.7411C30.5126 40.7411 30.3292 40.6801 30.1866 40.5582C30.0643 40.4363 30.0031 40.2331 30.0031 39.9486C30.0235 39.0341 30.0439 38.1908 30.0643 37.4186C30.105 36.6261 30.1458 35.7828 30.1866 34.8887C28.923 34.97 27.5983 35.1427 26.2125 35.4069C24.8267 35.6508 23.5122 35.9454 22.2691 36.2909C22.3098 36.9614 22.3608 37.6625 22.4219 38.394C22.4831 39.1256 22.5442 39.8266 22.6053 40.4972C22.585 40.7614 22.4729 40.9951 22.2691 41.1983C22.0856 41.4015 21.8819 41.5031 21.6577 41.5031C21.515 41.5031 21.3724 41.4625 21.2297 41.3812C21.1074 41.2999 20.9953 41.1475 20.8934 40.924C20.8731 40.8427 20.8425 40.5887 20.8017 40.1619C20.761 39.7149 20.7202 39.2272 20.6795 38.6988L20.496 36.6871C20.2311 36.5855 20.0986 36.3721 20.0986 36.047C20.0986 35.8844 20.119 35.732 20.1598 35.5898C20.2209 35.4272 20.333 35.2951 20.496 35.1935C20.4757 34.7058 20.4553 34.2181 20.4349 33.7305C20.4349 33.2224 20.4349 32.7144 20.4349 32.2064C20.4349 31.4139 20.4349 30.6214 20.4349 29.8289C20.4553 29.0161 20.4757 28.2236 20.496 27.4514C20.496 27.1872 20.496 26.8519 20.496 26.4455C20.5164 26.0391 20.5266 25.7038 20.5266 25.4396C20.5062 25.399 20.496 25.338 20.496 25.2567C20.496 25.1755 20.496 25.1145 20.496 25.0739C20.496 24.6878 20.5979 24.3931 20.8017 24.1899C21.0055 23.9664 21.2297 23.8546 21.4743 23.8546C21.8819 23.8546 22.1162 24.0375 22.1774 24.4033C22.2385 24.7691 22.2691 25.2466 22.2691 25.8359V26.1407C22.2691 26.73 22.2589 27.299 22.2385 27.8476C22.2385 28.3963 22.2385 28.9551 22.2385 29.5241C22.2181 30.0727 22.2079 30.6316 22.2079 31.2005C22.2079 31.7695 22.2079 32.3385 22.2079 32.9075C22.2079 33.2529 22.1977 33.5272 22.1774 33.7305C22.1774 33.9133 22.1875 34.1775 22.2079 34.523C23.4918 34.1165 24.8267 33.8117 26.2125 33.6085C27.5983 33.385 28.9638 33.2326 30.3088 33.1513L30.37 31.9016C30.4311 30.7636 30.4821 29.6358 30.5228 28.5182C30.584 27.3803 30.6247 26.2321 30.6451 25.0739L30.6757 24.9824Z" fill="#DF5C25"/>
<path d="M37.7324 25.1043C37.7732 24.6776 37.8955 24.3728 38.0993 24.1899C38.3031 23.9867 38.5171 23.8851 38.7412 23.8851C39.2507 23.8851 39.5259 24.2001 39.5666 24.83C39.5462 24.83 39.5259 24.9316 39.5055 25.1348C39.5055 25.3177 39.4953 25.4904 39.4749 25.653C39.4138 26.0797 39.3526 26.669 39.2915 27.4209C39.2304 28.1728 39.1998 29.1685 39.1998 30.408C39.1998 31.1802 39.2202 32.0743 39.2609 33.0904C39.3221 34.0861 39.424 35.0411 39.5666 35.9556C39.7297 36.87 39.964 37.6422 40.2697 38.2721C40.5754 38.9021 40.9932 39.217 41.5231 39.217C41.7472 39.217 41.9714 39.1662 42.1956 39.0646C42.4402 38.9427 42.6745 38.8004 42.8987 38.6379C43.1432 38.4753 43.3572 38.2924 43.5407 38.0892C43.7444 37.886 43.9279 37.7031 44.0909 37.5406C44.8042 36.6465 45.2831 35.6304 45.5277 34.4925C45.7926 33.3545 45.9251 32.2166 45.9251 31.0786C45.9251 30.3267 45.8843 29.6054 45.8028 28.9145C45.7417 28.2236 45.6805 27.5835 45.6194 26.9942L45.4665 25.6225C45.4665 25.3177 45.5786 25.0535 45.8028 24.83C46.0473 24.6065 46.2817 24.4947 46.5059 24.4947C46.6689 24.4947 46.8218 24.5455 46.9644 24.6471C47.1071 24.7487 47.1988 24.9316 47.2396 25.1958C47.3415 26.2321 47.4332 27.2279 47.5147 28.1829C47.6166 29.138 47.6675 30.0727 47.6675 30.9872C47.6675 31.9016 47.6064 32.7855 47.4841 33.639C47.3618 34.4722 47.1479 35.2748 46.8422 36.047C46.5365 36.8192 46.1187 37.5507 45.5888 38.2416C45.0589 38.9325 44.3864 39.593 43.5712 40.2229C43.2248 40.4871 42.8579 40.7004 42.4707 40.863C42.0835 41.0256 41.6963 41.1068 41.3091 41.1068C40.5347 41.1068 39.9029 40.7817 39.4138 40.1315C38.9247 39.4812 38.5273 38.6379 38.2216 37.6015C37.9362 36.5652 37.7325 35.4069 37.6102 34.1267C37.5083 32.8465 37.4573 31.5866 37.4573 30.3471C37.4573 29.3514 37.4777 28.4064 37.5185 27.5123C37.5796 26.6182 37.6509 25.8156 37.7324 25.1043Z" fill="#DF5C25"/>
<path d="M52.9069 23.6413C52.9069 23.3568 53.0189 23.1028 53.2431 22.8792C53.4877 22.6557 53.722 22.5439 53.9462 22.5439C54.1296 22.5439 54.2723 22.6354 54.3742 22.8183C54.4761 23.0012 54.5474 23.2348 54.5882 23.5193C54.6493 23.8038 54.6901 24.129 54.7105 24.4947C54.7308 24.8402 54.741 25.1856 54.741 25.5311C54.741 25.5717 54.7308 25.6022 54.7105 25.6225C54.7105 25.6225 54.7105 25.6327 54.7105 25.653V25.6835L54.741 25.714C54.9856 25.4498 55.2913 25.2364 55.6581 25.0739C56.0453 24.891 56.4733 24.7995 56.942 24.7995C57.5534 24.7995 58.1546 24.9418 58.7456 25.2263C59.357 25.5108 59.8971 25.8867 60.3658 26.3541C60.8549 26.8011 61.2421 27.3091 61.5275 27.8781C61.8331 28.4471 61.986 29.0161 61.986 29.585C61.986 30.4385 61.7007 31.2107 61.1301 31.9016C60.5798 32.5925 59.9378 33.1615 59.2042 33.6085C59.6729 33.6492 60.1314 33.7305 60.5798 33.8524C61.0485 33.954 61.4561 34.0962 61.8026 34.2791C62.1694 34.462 62.4649 34.6957 62.6891 34.9802C62.9133 35.2443 63.0254 35.5695 63.0254 35.9556C63.0254 36.4636 62.791 36.9614 62.3223 37.4491C61.8535 37.9165 61.2421 38.3534 60.4881 38.7598C59.734 39.1459 58.8781 39.4914 57.9203 39.7962C56.9624 40.101 56.0046 40.3347 55.0467 40.4972C55.0467 40.5988 55.0467 40.6903 55.0467 40.7716C55.0671 40.8325 55.0773 40.9138 55.0773 41.0154V41.9908C55.0773 42.2143 55.0773 42.4582 55.0773 42.7223C55.0773 43.0068 55.0467 43.271 54.9856 43.5148C54.9448 43.779 54.8633 43.9924 54.741 44.1549C54.6391 44.3378 54.4761 44.4293 54.2519 44.4293C54.0277 44.4293 53.7628 44.2972 53.4571 44.033C53.3552 43.464 53.2941 42.8544 53.2737 42.2042C53.2533 41.5539 53.2431 41.0459 53.2431 40.6801C53.1005 40.6801 52.9578 40.6801 52.8151 40.6801C52.6929 40.6598 52.5808 40.6395 52.4789 40.6191C52.2955 40.4972 52.1426 40.3448 52.0203 40.1619C51.8981 39.979 51.8369 39.7962 51.8369 39.6133C51.8369 39.4507 51.9083 39.278 52.0509 39.0951C52.1936 38.8919 52.4177 38.7903 52.7234 38.7903H53.2737C53.2941 38.3839 53.3043 37.9775 53.3043 37.5711C53.3043 37.1443 53.3043 36.7277 53.3043 36.3213C53.3043 35.224 53.2737 34.1064 53.2126 32.9684C53.1718 31.8305 53.131 30.6925 53.0903 29.5546C53.0495 28.5792 53.0088 27.5835 52.968 26.5674C52.9272 25.5311 52.9069 24.5557 52.9069 23.6413ZM55.0773 32.0235V32.9379C55.0773 33.1005 55.0773 33.192 55.0773 33.2123C55.0977 33.2326 55.1079 33.324 55.1079 33.4866C55.6174 33.385 56.1676 33.2224 56.7586 32.9989C57.37 32.7754 57.9203 32.5011 58.4094 32.1759C58.9189 31.8305 59.3366 31.4444 59.6627 31.0176C60.0092 30.5706 60.1824 30.0727 60.1824 29.5241C60.1824 29.1786 60.0805 28.8332 59.8767 28.4877C59.6933 28.1423 59.4385 27.8273 59.1125 27.5428C58.7864 27.2583 58.4196 27.0348 58.012 26.8722C57.6247 26.6894 57.2273 26.5979 56.8198 26.5979C56.5344 26.5979 56.3001 26.6386 56.1167 26.7198C55.9536 26.7808 55.811 26.9738 55.6887 27.299C55.5868 27.6241 55.4951 27.9899 55.4136 28.3963C55.3524 28.7824 55.3015 29.1888 55.2607 29.6155C55.22 30.0219 55.1894 30.3471 55.169 30.5909C55.169 30.6112 55.1588 30.6519 55.1384 30.7128C55.1384 30.7535 55.1384 30.784 55.1384 30.8043L55.0773 32.0235ZM55.0467 38.6988C55.6785 38.6176 56.3001 38.4956 56.9115 38.3331C57.5432 38.1502 58.1342 37.9571 58.6845 37.7539C59.2347 37.5304 59.7239 37.2967 60.1518 37.0529C60.6002 36.7887 60.9466 36.5245 61.1912 36.2604C61.0689 36.0572 60.8651 35.8946 60.5798 35.7727C60.2945 35.6508 59.9582 35.5593 59.571 35.4983C59.2042 35.4171 58.7966 35.3663 58.3482 35.3459C57.9203 35.3256 57.4923 35.3155 57.0643 35.3155C56.8605 35.3155 56.6465 35.3256 56.4223 35.3459C56.2186 35.3459 56.0249 35.3459 55.8415 35.3459H55.1079C55.1079 35.8946 55.1079 36.4534 55.1079 37.0224C55.1079 37.5914 55.0875 38.1502 55.0467 38.6988Z" fill="#DF5C25"/>
</g>
<defs>
<linearGradient id="paint0_linear" x1="74.264" y1="19.5579" x2="11.5039" y2="19.5579" gradientUnits="userSpaceOnUse">
<stop offset="0.1" stop-color="#42A19B"/>
<stop offset="0.3" stop-color="#0081B8"/>
<stop offset="0.42" stop-color="#1C3B74"/>
<stop offset="0.62" stop-color="#D31C3B"/>
<stop offset="0.84" stop-color="#DF5C25"/>
</linearGradient>
<linearGradient id="paint1_linear" x1="11.5038" y1="56.0427" x2="74.2638" y2="56.7395" gradientUnits="userSpaceOnUse">
<stop offset="0.1" stop-color="#42A19B"/>
<stop offset="0.3" stop-color="#0081B8"/>
<stop offset="0.42" stop-color="#1C3B74"/>
<stop offset="0.62" stop-color="#D31C3B"/>
<stop offset="0.84" stop-color="#DF5C25"/>
</linearGradient>
<linearGradient id="paint2_linear" x1="10.288" y1="71.898" x2="10.288" y2="3.71834" gradientUnits="userSpaceOnUse">
<stop offset="0.1" stop-color="#42A19B"/>
<stop offset="0.3" stop-color="#0081B8"/>
<stop offset="0.42" stop-color="#1C3B74"/>
<stop offset="0.62" stop-color="#D31C3B"/>
<stop offset="0.84" stop-color="#DF5C25"/>
</linearGradient>
<linearGradient id="paint3_linear" x1="66.3903" y1="2.701" x2="66.6206" y2="73.5923" gradientUnits="userSpaceOnUse">
<stop offset="0.1" stop-color="#42A19B"/>
<stop offset="0.3" stop-color="#0081B8"/>
<stop offset="0.42" stop-color="#1C3B74"/>
<stop offset="0.62" stop-color="#D31C3B"/>
<stop offset="0.84" stop-color="#DF5C25"/>
</linearGradient>
<clipPath id="clip0">
<rect width="85.6872" height="74.586" fill="white" transform="translate(0.15625 0.853638)"/>
</clipPath>
</defs>
</svg>
